# xmcd
#
# Track frame offsets:
#	150
#	12165
#	26397
#	43246
#	55729
#	68558
#	81633
#	93667
#	108161
#	120234
#	131975
#	145557
#	156649
#	173116
#	190124
#
# Disc length: 2773 seconds
#
# Revision: 1
# Processed by: cddbd v1.5.2PL0 Copyright (c) Steve Scherf et al.
# Submitted via: audiograbber 1.83.01
#
DISCID=c80ad30f
DTITLE=Craig Ventresco - Plays The Guitar
DYEAR=2010
DGENRE=Rag Blues
TTITLE0=Take 'Em to the Door
TTITLE1=Take Me to the Land of Jazz
TTITLE2=Sugar Blues
TTITLE3=Big City Blues
TTITLE4=Broken Blues
TTITLE5=Downhearted Blues
TTITLE6=Step it Up and Go
TTITLE7=Ukulele Blues part 1
TTITLE8=Terrible Murder Blues
TTITLE9=Low Down Blues
TTITLE10=Wang Wang Blues
TTITLE11=Hesitation Blues
TTITLE12=The Blues Have Got Me
TTITLE13=The New Lonesome Crave
TTITLE14=Ukulele Blues part 2
EXTD=
EXTT0=
EXTT1=
EXTT2=
EXTT3=
EXTT4=
EXTT5=
EXTT6=
EXTT7=
EXTT8=
EXTT9=
EXTT10=
EXTT11=
EXTT12=
EXTT13=
EXTT14=
PLAYORDER=
